<svg enable-background="new 0 0 60 52" height="512" viewBox="0 0 60 52" width="512" xmlns="http://www.w3.org/2000/svg"><path id="Stroke-290_2_" d="m5 45h8v6h-8z" fill="#a3abaf"/><path id="Stroke-292_3_" d="m47 45h8v6h-8z" fill="#a3abaf"/><path id="Stroke-294_2_" d="m1 1h58v46h-58z" fill="#e7eced"/><path id="Stroke-321_2_" d="m51 39v-4h4v-22h-4v-4h4v-3.003c0-.551-.446-.997-.997-.997h-48.006c-.551 0-.997.446-.997.997v36.005c0 .552.446.998.997.998h48.005c.552 0 .998-.446.998-.997v-3.003z" fill="#cccece"/><path id="Stroke-317_2_" d="m51 9h8v4h-8z" fill="#a3abaf"/><path id="Stroke-319_2_" d="m51 35h8v4h-8z" fill="#a3abaf"/><path id="Stroke-481" d="m36 15h12v6h-12z" fill="#dc691d"/><circle cx="20" cy="24" fill="#a3abaf" r="7"/><g fill="#4d007e"><path d="m13 52h-8c-.552 0-1-.447-1-1v-4c0-.553.448-1 1-1h8c.552 0 1 .447 1 1v4c0 .553-.448 1-1 1zm-7-2h6v-2h-6z"/><path d="m55 52h-8c-.552 0-1-.447-1-1v-4c0-.553.448-1 1-1h8c.552 0 1 .447 1 1v4c0 .553-.448 1-1 1zm-7-2h6v-2h-6z"/><path d="m59 48h-58c-.552 0-1-.447-1-1v-46c0-.553.448-1 1-1h58c.552 0 1 .447 1 1v46c0 .553-.448 1-1 1zm-57-2h56v-44h-56z"/><path d="m59 14h-8c-.552 0-1-.447-1-1v-4c0-.553.448-1 1-1h8c.552 0 1 .447 1 1v4c0 .553-.448 1-1 1zm-7-2h6v-2h-6z"/><path d="m59 40h-8c-.552 0-1-.447-1-1v-4c0-.553.448-1 1-1h8c.552 0 1 .447 1 1v4c0 .553-.448 1-1 1zm-7-2h6v-2h-6z"/><path d="m54.003 44h-48.006c-1.101 0-1.997-.896-1.997-1.997v-36.006c0-1.101.896-1.997 1.997-1.997h48.005c1.102 0 1.998.896 1.998 1.997v3.003c0 .553-.448 1-1 1h-3v2h3c.552 0 1 .447 1 1v22c0 .553-.448 1-1 1h-3v2h3c.552 0 1 .447 1 1v3.003c0 1.101-.896 1.997-1.997 1.997zm-.003-38.003-48.003.003.003 36.003 48.003-.003-.002-2h-3.001c-.552 0-1-.447-1-1v-4c0-.553.448-1 1-1h3v-20h-3c-.552 0-1-.447-1-1v-4c0-.553.448-1 1-1h3z"/><path d="m13 25h-4c-.552 0-1-.447-1-1s.448-1 1-1h4c.552 0 1 .447 1 1s-.448 1-1 1z"/><path d="m31 25h-4c-.552 0-1-.447-1-1s.448-1 1-1h4c.552 0 1 .447 1 1s-.448 1-1 1z"/><path d="m20 18c-.552 0-1-.447-1-1v-4c0-.553.448-1 1-1s1 .447 1 1v4c0 .553-.448 1-1 1z"/><path d="m20 36c-.552 0-1-.447-1-1v-4c0-.553.448-1 1-1s1 .447 1 1v4c0 .553-.448 1-1 1z"/><path d="m48 22h-12c-.552 0-1-.447-1-1v-6c0-.553.448-1 1-1h12c.552 0 1 .447 1 1v6c0 .553-.448 1-1 1zm-11-2h10v-4h-10z"/><path d="m20 28c-2.206 0-4-1.794-4-4s1.794-4 4-4c.552 0 1 .447 1 1s-.448 1-1 1c-1.103 0-2 .897-2 2s.897 2 2 2 2-.897 2-2c0-.553.448-1 1-1s1 .447 1 1c0 2.206-1.794 4-4 4z"/><path d="m20 32c-4.411 0-8-3.589-8-8s3.589-8 8-8 8 3.589 8 8-3.589 8-8 8zm0-14c-3.308 0-6 2.691-6 6s2.692 6 6 6 6-2.691 6-6-2.692-6-6-6z"/><path d="m12 33c-.256 0-.512-.098-.707-.293-.39-.391-.39-1.023 0-1.414l3.05-3.05c.391-.391 1.024-.391 1.414 0s.39 1.023 0 1.414l-3.05 3.05c-.195.195-.451.293-.707.293z"/><path d="m24.95 20.05c-.256 0-.512-.098-.707-.293-.39-.391-.39-1.023 0-1.414l3.05-3.05c.391-.391 1.024-.391 1.414 0s.39 1.023 0 1.414l-3.05 3.05c-.196.195-.451.293-.707.293z"/><path d="m15.05 20.05c-.256 0-.512-.098-.707-.293l-3.05-3.05c-.391-.391-.391-1.023 0-1.414s1.024-.391 1.414 0l3.05 3.05c.391.391.391 1.023 0 1.414-.195.195-.451.293-.707.293z"/><path d="m28 33c-.256 0-.512-.098-.707-.293l-3.05-3.05c-.391-.391-.391-1.023 0-1.414s1.024-.391 1.414 0l3.05 3.05c.391.391.391 1.023 0 1.414-.195.195-.451.293-.707.293z"/><path d="m37 26h-1c-.552 0-1-.447-1-1s.448-1 1-1h1c.552 0 1 .447 1 1s-.448 1-1 1z"/><path d="m48 26h-1c-.552 0-1-.447-1-1s.448-1 1-1h1c.552 0 1 .447 1 1s-.448 1-1 1z"/><path d="m43 26h-2c-.552 0-1-.447-1-1s.448-1 1-1h2c.552 0 1 .447 1 1s-.448 1-1 1z"/><path d="m37 30h-1c-.552 0-1-.447-1-1s.448-1 1-1h1c.552 0 1 .447 1 1s-.448 1-1 1z"/><path d="m48 30h-1c-.552 0-1-.447-1-1s.448-1 1-1h1c.552 0 1 .447 1 1s-.448 1-1 1z"/><path d="m43 30h-2c-.552 0-1-.447-1-1s.448-1 1-1h2c.552 0 1 .447 1 1s-.448 1-1 1z"/><path d="m37 34h-1c-.552 0-1-.447-1-1s.448-1 1-1h1c.552 0 1 .447 1 1s-.448 1-1 1z"/><path d="m48 34h-1c-.552 0-1-.447-1-1s.448-1 1-1h1c.552 0 1 .447 1 1s-.448 1-1 1z"/><path d="m43 34h-2c-.552 0-1-.447-1-1s.448-1 1-1h2c.552 0 1 .447 1 1s-.448 1-1 1z"/></g></svg>