<?xml version="1.0" encoding="iso-8859-1"?>
<!-- Generator: Adobe Illustrator 19.0.0, SVG Export Plug-In . SVG Version: 6.00 Build 0)  -->
<svg version="1.1" id="Capa_1" xmlns="http://www.w3.org/2000/svg" xmlns:xlink="http://www.w3.org/1999/xlink" x="0px" y="0px"
	 viewBox="0 0 480 480" style="enable-background:new 0 0 480 480;" xml:space="preserve">
<path style="fill:#B139D8;" d="M48,168H32H48h48h16H96v64h40V104V8H8v224h40V168z M104,32v16V32z M104,64v16V64z M104,96v16V96z
	 M72,32v16V32z M72,64v16V64z M72,96v16V96z M40,32v16V32z M40,64v16V64z M40,96v16V96z"/>
<path style="fill:#9C32BF;" d="M232,232V104h-96v128H232z M200,128v16V128z M200,160v16V160z M168,128v16V128z M168,160v16V160z"/>
<g>
	<path style="fill:#FFC931;" d="M184,472h96V344h-96V472z M248,368v16V368z M248,400v16V400z M216,368v16V368z M216,400v16V400z"/>
	<path style="fill:#FFC931;" d="M312,472v-48h32v48h32V344V240h-96v104v128H312z M344,264v16V264z M344,296v16V296z M344,328v16V328
		z M344,360v16V360z M312,264v16V264z M312,296v16V296z M312,328v16V328z M312,360v16V360z"/>
</g>
<g>
	<rect x="328" y="240" style="fill:#E6B52C;" width="48" height="232"/>
	<path style="fill:#E6B52C;" d="M472,472V344h-96v128H472z M440,368v16V368z M440,400v16V400z M408,368v16V368z M408,400v16V400z"/>
</g>
<g>
	<rect x="312" y="424" style="fill:#4BDDDD;" width="32" height="48"/>
	<rect x="48" y="168" style="fill:#4BDDDD;" width="48" height="64"/>
</g>
<g>
	<path style="fill:#2A0E54;" d="M8,240h40h48h40h96c4.424,0,8-3.584,8-8V104c0-4.416-3.576-8-8-8h-88V8c0-4.416-3.576-8-8-8H8
		C3.576,0,0,3.584,0,8v224C0,236.416,3.576,240,8,240z M56,224v-48h32v48H56z M224,112v112h-80V112H224z M16,16h112v88v120h-24v-48
		h8v-16H96H48H32v16h8v48H16V16z"/>
	<path style="fill:#2A0E54;" d="M472,336h-88v-96c0-4.416-3.576-8-8-8h-96c-4.424,0-8,3.584-8,8v96h-88c-4.424,0-8,3.584-8,8v128
		c0,4.416,3.576,8,8,8h96h32h32h32h96c4.424,0,8-3.584,8-8V344C480,339.584,476.424,336,472,336z M192,352h80v112h-80V352z M288,344
		v-96h80v96v120h-16v-40c0-4.416-3.576-8-8-8h-32c-4.424,0-8,3.584-8,8v40h-16V344z M320,464v-32h16v32H320z M464,464h-80V352h80
		V464z"/>
	<rect x="32" y="32" style="fill:#2A0E54;" width="16" height="16"/>
	<rect x="64" y="32" style="fill:#2A0E54;" width="16" height="16"/>
	<rect x="96" y="32" style="fill:#2A0E54;" width="16" height="16"/>
	<rect x="32" y="64" style="fill:#2A0E54;" width="16" height="16"/>
	<rect x="64" y="64" style="fill:#2A0E54;" width="16" height="16"/>
	<rect x="96" y="64" style="fill:#2A0E54;" width="16" height="16"/>
	<rect x="32" y="96" style="fill:#2A0E54;" width="16" height="16"/>
	<rect x="64" y="96" style="fill:#2A0E54;" width="16" height="16"/>
	<rect x="96" y="96" style="fill:#2A0E54;" width="16" height="16"/>
	<rect x="160" y="128" style="fill:#2A0E54;" width="16" height="16"/>
	<rect x="192" y="128" style="fill:#2A0E54;" width="16" height="16"/>
	<rect x="160" y="160" style="fill:#2A0E54;" width="16" height="16"/>
	<rect x="192" y="160" style="fill:#2A0E54;" width="16" height="16"/>
	<rect x="304" y="264" style="fill:#2A0E54;" width="16" height="16"/>
	<rect x="336" y="264" style="fill:#2A0E54;" width="16" height="16"/>
	<rect x="304" y="296" style="fill:#2A0E54;" width="16" height="16"/>
	<rect x="336" y="296" style="fill:#2A0E54;" width="16" height="16"/>
	<rect x="304" y="328" style="fill:#2A0E54;" width="16" height="16"/>
	<rect x="336" y="328" style="fill:#2A0E54;" width="16" height="16"/>
	<rect x="304" y="360" style="fill:#2A0E54;" width="16" height="16"/>
	<rect x="336" y="360" style="fill:#2A0E54;" width="16" height="16"/>
	<rect x="400" y="368" style="fill:#2A0E54;" width="16" height="16"/>
	<rect x="432" y="368" style="fill:#2A0E54;" width="16" height="16"/>
	<rect x="400" y="400" style="fill:#2A0E54;" width="16" height="16"/>
	<rect x="432" y="400" style="fill:#2A0E54;" width="16" height="16"/>
	<rect x="208" y="368" style="fill:#2A0E54;" width="16" height="16"/>
	<rect x="240" y="368" style="fill:#2A0E54;" width="16" height="16"/>
	<rect x="208" y="400" style="fill:#2A0E54;" width="16" height="16"/>
	<rect x="240" y="400" style="fill:#2A0E54;" width="16" height="16"/>
	<rect x="160" y="48" style="fill:#2A0E54;" width="16" height="16"/>
	<rect x="192" y="48" style="fill:#2A0E54;" width="16" height="16"/>
	<rect x="224" y="48" style="fill:#2A0E54;" width="16" height="16"/>
	<rect x="256" y="48" style="fill:#2A0E54;" width="16" height="16"/>
	<rect x="288" y="48" style="fill:#2A0E54;" width="16" height="16"/>
	<rect x="320" y="48" style="fill:#2A0E54;" width="16" height="16"/>
	<rect x="352" y="48" style="fill:#2A0E54;" width="16" height="16"/>
	<rect x="384" y="48" style="fill:#2A0E54;" width="16" height="16"/>
	<rect x="416" y="48" style="fill:#2A0E54;" width="16" height="16"/>
	<rect x="416" y="80" style="fill:#2A0E54;" width="16" height="16"/>
	<rect x="416" y="112" style="fill:#2A0E54;" width="16" height="16"/>
	<rect x="416" y="144" style="fill:#2A0E54;" width="16" height="16"/>
	<rect x="416" y="176" style="fill:#2A0E54;" width="16" height="16"/>
	<rect x="416" y="208" style="fill:#2A0E54;" width="16" height="16"/>
	<rect x="416" y="240" style="fill:#2A0E54;" width="16" height="16"/>
	<rect x="416" y="272" style="fill:#2A0E54;" width="16" height="16"/>
	<rect x="416" y="304" style="fill:#2A0E54;" width="16" height="16"/>
	<rect x="48" y="256" style="fill:#2A0E54;" width="16" height="16"/>
	<rect x="48" y="288" style="fill:#2A0E54;" width="16" height="16"/>
	<rect x="48" y="320" style="fill:#2A0E54;" width="16" height="16"/>
	<rect x="48" y="352" style="fill:#2A0E54;" width="16" height="16"/>
	<rect x="48" y="384" style="fill:#2A0E54;" width="16" height="16"/>
	<rect x="48" y="416" style="fill:#2A0E54;" width="16" height="16"/>
	<rect x="80" y="416" style="fill:#2A0E54;" width="16" height="16"/>
	<rect x="112" y="416" style="fill:#2A0E54;" width="16" height="16"/>
	<rect x="144" y="416" style="fill:#2A0E54;" width="16" height="16"/>
</g>
<g>
</g>
<g>
</g>
<g>
</g>
<g>
</g>
<g>
</g>
<g>
</g>
<g>
</g>
<g>
</g>
<g>
</g>
<g>
</g>
<g>
</g>
<g>
</g>
<g>
</g>
<g>
</g>
<g>
</g>
</svg>
