<?xml version="1.0" encoding="iso-8859-1"?>
<!-- Generator: Adobe Illustrator 19.0.0, SVG Export Plug-In . SVG Version: 6.00 Build 0)  -->
<svg version="1.1" id="Capa_1" xmlns="http://www.w3.org/2000/svg" xmlns:xlink="http://www.w3.org/1999/xlink" x="0px" y="0px"
	 viewBox="0 0 512 512" style="enable-background:new 0 0 512 512;" xml:space="preserve">
<path style="fill:#FFBF41;" d="M131.849,399.497L20.48,281.604c-6.506-6.894-6.409-17.699,0.221-24.47l226.101-231
	c6.824-6.965,17.999-7.089,24.964-0.274c0.088,0.088,0.185,0.177,0.274,0.274l130.648,133.517c6.771,6.921,6.709,18.008-0.15,24.85
	l-84.745,84.745"/>
<path style="fill:#87D0F0;" d="M150.069,269.246h335.448c9.754,0,17.655,7.901,17.655,17.655v194.207
	c0,9.754-7.901,17.655-17.655,17.655H150.069c-9.754,0-17.655-7.901-17.655-17.655V286.901
	C132.414,277.155,140.324,269.246,150.069,269.246z"/>
<g>
	<rect x="167.725" y="392.832" style="fill:#1E5D89;" width="61.793" height="17.655"/>
	<rect x="247.173" y="392.832" style="fill:#1E5D89;" width="61.793" height="17.655"/>
	<rect x="326.621" y="392.832" style="fill:#1E5D89;" width="61.793" height="17.655"/>
	<rect x="406.069" y="392.832" style="fill:#1E5D89;" width="61.793" height="17.655"/>
</g>
<path style="fill:#FFBF41;" d="M406.29,313.604c12.067-12.067,31.629-12.067,43.697,0c12.067,12.067,12.067,31.629,0,43.697
	c-12.067,12.067-31.629,12.067-43.688,0"/>
<rect x="132.414" y="454.625" style="fill:#1E5D89;" width="370.759" height="17.655"/>
<polygon style="fill:#E3482C;" points="68.856,332.804 318.853,73.979 288.292,42.747 34.552,296.488 "/>
<g>
	<rect x="167.725" y="295.728" style="fill:#D1E3EF;" width="17.655" height="17.655"/>
	<rect x="167.725" y="322.211" style="fill:#D1E3EF;" width="17.929" height="17.655"/>
	<rect x="194.207" y="295.728" style="fill:#D1E3EF;" width="17.655" height="44.138"/>
	<rect x="220.69" y="295.728" style="fill:#D1E3EF;" width="17.655" height="17.655"/>
	<rect x="220.69" y="322.211" style="fill:#D1E3EF;" width="17.655" height="17.655"/>
</g>
<g>
	
		<rect x="283.982" y="198.638" transform="matrix(-0.7071 0.7071 -0.7071 -0.7071 674.1119 135.7038)" style="fill:#1E5D89;" width="49.937" height="17.655"/>
	
		<rect x="331.788" y="163.328" transform="matrix(-0.7071 0.7071 -0.7071 -0.7071 709.4391 50.4526)" style="fill:#1E5D89;" width="24.964" height="17.655"/>
</g>
<circle style="fill:#E3482C;" cx="384" cy="335.453" r="30.897"/>
<rect x="167.725" y="392.832" width="61.793" height="17.655"/>
<rect x="247.173" y="392.832" width="61.793" height="17.655"/>
<rect x="326.621" y="392.832" width="61.793" height="17.655"/>
<rect x="406.069" y="392.832" width="61.793" height="17.655"/>
<path d="M384,375.177c7.857,0.009,15.545-2.322,22.069-6.709c18.238,12.2,42.902,7.309,55.102-10.929
	c12.2-18.238,7.309-42.902-10.929-55.102c-13.365-8.942-30.817-8.942-44.182,0c-18.238-12.2-42.902-7.309-55.102,10.929
	c-12.2,18.238-7.309,42.902,10.929,55.102C368.428,372.846,376.126,375.186,384,375.177z M418.304,315.794
	c3.046-1.562,6.409-2.383,9.834-2.41c12.191,0,22.069,9.878,22.069,22.069c0,12.191-9.878,22.069-22.069,22.069
	c-3.425-0.026-6.788-0.847-9.834-2.41C425.534,343.009,425.534,327.905,418.304,315.794z M384,313.384
	c12.191,0,22.069,9.878,22.069,22.069c0,12.191-9.878,22.069-22.069,22.069c-12.191,0-22.069-9.878-22.069-22.069
	C361.931,323.262,371.809,313.384,384,313.384z"/>
<path d="M123.587,403.61v77.497c0,14.627,11.855,26.483,26.483,26.483h335.448c14.627,0,26.483-11.855,26.483-26.483V286.901
	c0-14.627-11.855-26.483-26.483-26.483H339.103l82.035-82.035c3.416-3.416,3.452-8.951,0.071-12.412L265.711,7.066
	c-3.407-3.487-8.995-3.549-12.482-0.141c-0.044,0.053-0.097,0.097-0.141,0.141l-250.571,256c-3.31,3.39-3.363,8.792-0.106,12.235
	L123.587,403.61z M123.587,377.896l-42.496-45.021l42.496-43.988V377.896z M494.345,481.108c0,4.873-3.955,8.828-8.828,8.828
	H150.069c-4.873,0-8.828-3.955-8.828-8.828v-8.828h353.103V481.108z M485.518,278.073c4.873,0,8.828,3.955,8.828,8.828v167.724
	H141.242V286.901c0-4.873,3.955-8.828,8.828-8.828H485.518z M402.476,172.072l-88.338,88.346H151.076L318.87,86.629L402.476,172.072
	z M306.521,74.006L68.961,320.057l-22.069-23.393L288.221,55.3L306.521,74.006z M259.425,25.869l16.446,16.772L34.737,283.82
	l-13.665-14.46L259.425,25.869z"/>
<rect x="167.725" y="295.728" width="17.655" height="17.655"/>
<rect x="167.725" y="322.211" width="17.929" height="17.655"/>
<rect x="194.207" y="295.728" width="17.655" height="44.138"/>
<rect x="220.69" y="295.728" width="17.655" height="17.655"/>
<rect x="220.69" y="322.211" width="17.655" height="17.655"/>
<rect x="283.982" y="198.638" transform="matrix(-0.7071 0.7071 -0.7071 -0.7071 674.1119 135.7038)" width="49.937" height="17.655"/>
<rect x="331.788" y="163.328" transform="matrix(-0.7071 0.7071 -0.7071 -0.7071 709.4391 50.4526)" width="24.964" height="17.655"/>
<g>
</g>
<g>
</g>
<g>
</g>
<g>
</g>
<g>
</g>
<g>
</g>
<g>
</g>
<g>
</g>
<g>
</g>
<g>
</g>
<g>
</g>
<g>
</g>
<g>
</g>
<g>
</g>
<g>
</g>
</svg>
