<svg height="512" viewBox="0 0 64 64" width="512" xmlns="http://www.w3.org/2000/svg"><g id="Safe_box-3" data-name="Safe box"><rect fill="#c49a6c" height="50" rx="2" width="46" x="15" y="7"/><path d="m19 11h38v42h-38z" fill="#a7a9ac"/><path d="m28.662 53h28.338v-35c0 16.994-12.074 31.21-28.338 35z" fill="#939598"/><path d="m5 26a2 2 0 0 0 -2 2v7a2 2 0 0 0 2 2h2v-11z" fill="#c49a6c"/><path d="m18 57h8v4h-8z" fill="#414042"/><path d="m46 57h8v4h-8z" fill="#414042"/><path d="m19 14-4-3-4-3v48l4-3 4-3z" fill="#6d6e71"/><path d="m9 6a2 2 0 0 0 -2 2v48a2 2 0 0 0 4 0v-48a2 2 0 0 0 -2-2z" fill="#a7a9ac"/><path d="m36 45h-1v4h7v-4z" fill="#bcbec0"/><path d="m32 45h-8-1v4h9z" fill="#4e901e"/><path d="m45 45v4h8v-4h-7z" fill="#4e901e"/><path d="m33 45h-1v4h3v-4z" fill="#d1d3d4"/><path d="m43 45h-1v4h3v-4z" fill="#d1d3d4"/><path d="m33 45v-4h-1-8v4h8z" fill="#5eac24"/><path d="m46 45h7 1v-4h-1-7z" fill="#5eac24"/><path d="m42 45h1v-4h-1-6v4z" fill="#bcbec0"/><path d="m36 45v-4h-1-2v4h2z" fill="#e6e7e8"/><path d="m45 45h1v-4h-1-2v4z" fill="#e6e7e8"/><path d="m46 41h7v-4h-8v4z" fill="#91dc5a"/><path d="m36 41h6v-4h-4-3v4z" fill="#d1d3d4"/><path d="m32 37h-9v4h1 8z" fill="#91dc5a"/><path d="m33 41h2v-4h-3v4z" fill="#f1f2f2"/><path d="m43 41h2v-4h-3v4z" fill="#f1f2f2"/><circle cx="38" cy="26" fill="#ff9811" r="11"/><circle cx="38" cy="26" fill="#fbb040" r="8"/><path d="m38 18a8.047 8.047 0 0 0 -1 .069 7.993 7.993 0 0 1 0 15.862 8 8 0 1 0 1-15.931z" fill="#f7941d"/><path d="m59 6h-42a3 3 0 0 0 -3 3l-2.055-1.541a3 3 0 0 0 -5.945.541v17h-1a3 3 0 0 0 -3 3v7a3 3 0 0 0 3 3h1v18a3 3 0 0 0 5.945.541l2.055-1.541a3 3 0 0 0 3 3v3a1 1 0 0 0 1 1h8a1 1 0 0 0 1-1v-3h18v3a1 1 0 0 0 1 1h8a1 1 0 0 0 1-1v-3h4a3 3 0 0 0 3-3v-46a3 3 0 0 0 -3-3zm-39 6h36v40h-36zm-15 24a1 1 0 0 1 -1-1v-7a1 1 0 0 1 1-1h1v9zm4 21a1 1 0 0 1 -1-1v-48a1 1 0 0 1 2 0v48a1 1 0 0 1 -1 1zm3-47 6 4.5v35l-6 4.5zm13 50h-6v-2h6zm28 0h-6v-2h6zm7-5a1 1 0 0 1 -1 1h-42a1 1 0 0 1 -1-1v-1.5l2-1.5v1a1 1 0 0 0 1 1h38a1 1 0 0 0 1-1v-42a1 1 0 0 0 -1-1h-38a1 1 0 0 0 -1 1v1l-2-1.5v-1.5a1 1 0 0 1 1-1h42a1 1 0 0 1 1 1z"/><path d="m54 40v-3a1 1 0 0 0 -1-1h-8.381a12 12 0 1 0 -13.238 0h-8.381a1 1 0 0 0 -1 1v4a1 1 0 0 0 1 1v2a1 1 0 0 0 -1 1v4a1 1 0 0 0 1 1h30a1 1 0 0 0 1-1v-3a1 1 0 0 0 1-1v-4a1 1 0 0 0 -1-1zm-21-2h1v2h-1zm11 2h-1v-2h1zm-3 0h-5v-2h5zm-7 2h1v2h-1zm7 4v2h-5v-2zm-4-2v-2h5v2zm7-2h1v2h-1zm3 0h6v2h-6zm5-2h-6v-2h6zm-24-14a10 10 0 1 1 10 10 10.011 10.011 0 0 1 -10-10zm-4 12h7v2h-7zm1 4h7v2h-7zm-1 4h7v2h-7zm9 2v-2h1v2zm10 0v-2h1v2zm9 0h-6v-2h6z"/><path d="m39 31v-.184a2.993 2.993 0 0 0 -1-5.816 1 1 0 1 1 1-1 1 1 0 0 0 2 0 3 3 0 0 0 -2-2.816v-.184a1 1 0 0 0 -2 0v.184a2.993 2.993 0 0 0 1 5.816 1 1 0 1 1 -1 1 1 1 0 0 0 -2 0 3 3 0 0 0 2 2.816v.184a1 1 0 0 0 2 0z"/><path d="m47 26a9 9 0 1 0 -9 9 9.011 9.011 0 0 0 9-9zm-16 0a7 7 0 1 1 7 7 7.008 7.008 0 0 1 -7-7z"/></g></svg>