<?xml version="1.0" encoding="iso-8859-1"?>
<!-- Generator: Adobe Illustrator 19.0.0, SVG Export Plug-In . SVG Version: 6.00 Build 0)  -->
<svg version="1.1" id="Capa_1" xmlns="http://www.w3.org/2000/svg" xmlns:xlink="http://www.w3.org/1999/xlink" x="0px" y="0px"
	 viewBox="0 0 512 512" style="enable-background:new 0 0 512 512;" xml:space="preserve">
<g>
	<path style="fill:#29ABE2;" d="M44.138,467.862h70.621V512H44.138V467.862z"/>
	<path style="fill:#29ABE2;" d="M467.862,512h-70.621v-44.138h70.621V512z"/>
</g>
<path style="fill:#009245;" d="M141.241,0h229.517v194.207H141.241V0z"/>
<path style="fill:#F2F2F2;" d="M335.448,194.207V70.621h-35.31V35.31h-88.276v35.31h-35.31v123.586H335.448z"/>
<g>
	<path style="fill:#50BB65;" d="M167.724,26.483h17.655v17.655h-17.655V26.483z"/>
	<path style="fill:#50BB65;" d="M326.621,26.483h17.655v17.655h-17.655V26.483z"/>
</g>
<circle style="fill:#009245;" cx="256" cy="150.069" r="35.31"/>
<path style="fill:#E6E6E6;" d="M17.655,185.379h476.69v291.31H17.655V185.379z"/>
<g>
	<path style="fill:#29ABE2;" d="M361.931,406.069c-39,0-70.621-31.62-70.621-70.621s31.62-70.621,70.621-70.621
		s70.621,31.62,70.621,70.621C432.508,374.431,400.914,406.025,361.931,406.069z M361.931,282.483
		c-29.255,0-52.966,23.711-52.966,52.966s23.711,52.966,52.966,52.966s52.966-23.711,52.966-52.966
		C414.87,306.211,391.168,282.509,361.931,282.483z"/>
	<path style="fill:#29ABE2;" d="M293.261,391.636l18.723-18.723l12.482,12.482l-18.723,18.723L293.261,391.636z"/>
	<path style="fill:#29ABE2;" d="M399.378,285.519l18.723-18.723l12.482,12.482l-18.723,18.723L399.378,285.519z"/>
	<path style="fill:#29ABE2;" d="M293.27,279.261l12.482-12.482l18.723,18.723l-12.482,12.482L293.27,279.261z"/>
	<path style="fill:#29ABE2;" d="M399.378,385.377l12.482-12.482l18.723,18.723L418.101,404.1L399.378,385.377z"/>
	<path style="fill:#29ABE2;" d="M273.655,326.621h26.483v17.655h-26.483V326.621z"/>
	<path style="fill:#29ABE2;" d="M423.724,326.621h26.483v17.655h-26.483V326.621z"/>
	<path style="fill:#29ABE2;" d="M353.103,247.172h17.655v26.483h-17.655V247.172z"/>
	<path style="fill:#29ABE2;" d="M353.103,397.241h17.655v26.483h-17.655V397.241z"/>
</g>
<g>
	<path style="fill:#999999;" d="M176.552,353.103h26.483v17.655h-26.483V353.103z"/>
	<path style="fill:#999999;" d="M132.414,353.103h26.483v17.655h-26.483V353.103z"/>
	<path style="fill:#999999;" d="M88.276,353.103h26.483v17.655H88.276V353.103z"/>
	<path style="fill:#999999;" d="M176.552,388.414h26.483v17.655h-26.483V388.414z"/>
	<path style="fill:#999999;" d="M132.414,388.414h26.483v17.655h-26.483V388.414z"/>
	<path style="fill:#999999;" d="M88.276,388.414h26.483v17.655H88.276V388.414z"/>
	<path style="fill:#999999;" d="M176.552,423.724h26.483v17.655h-26.483V423.724z"/>
	<path style="fill:#999999;" d="M132.414,423.724h26.483v17.655h-26.483V423.724z"/>
	<path style="fill:#999999;" d="M88.276,423.724h26.483v17.655H88.276V423.724z"/>
</g>
<path style="fill:#FBB03B;" d="M61.793,229.517h167.724v88.276H61.793V229.517z"/>
<path style="fill:#0071BC;" d="M361.931,370.759c-19.5,0-35.31-15.81-35.31-35.31s15.81-35.31,35.31-35.31
	c19.5,0,35.31,15.81,35.31,35.31S381.431,370.759,361.931,370.759z M361.931,317.793c-9.754,0-17.655,7.901-17.655,17.655
	s7.901,17.655,17.655,17.655s17.655-7.901,17.655-17.655S371.686,317.793,361.931,317.793z"/>
<path style="fill:#F7931E;" d="M193.033,229.517c-13.135,37.703-39.83,69.164-74.884,88.276h111.369v-88.276H193.033z"/>
<g>
</g>
<g>
</g>
<g>
</g>
<g>
</g>
<g>
</g>
<g>
</g>
<g>
</g>
<g>
</g>
<g>
</g>
<g>
</g>
<g>
</g>
<g>
</g>
<g>
</g>
<g>
</g>
<g>
</g>
</svg>
