<?xml version="1.0" encoding="iso-8859-1"?>
<!-- Generator: Adobe Illustrator 19.0.0, SVG Export Plug-In . SVG Version: 6.00 Build 0)  -->
<svg version="1.1" id="Layer_1" xmlns="http://www.w3.org/2000/svg" xmlns:xlink="http://www.w3.org/1999/xlink" x="0px" y="0px"
	 viewBox="0 0 503.512 503.512" style="enable-background:new 0 0 503.512 503.512;" xml:space="preserve">
<g>
	<path style="fill:#E64C3C;" d="M74.02,503.501c-22.646,0-41.338-6.27-54.532-19.456c-36.537-36.528-20.975-117.651,40.607-211.699
		c2.543-3.878,7.747-4.969,11.625-2.426c3.869,2.543,4.961,7.747,2.417,11.625c-56.102,85.68-72.897,160.516-42.781,190.632
		C76.58,517.383,215.71,454.659,335.19,335.179C454.663,215.698,517.404,76.568,472.188,31.353
		C443.877,3.05,376.36,16.278,295.943,65.858c-3.936,2.434-9.115,1.209-11.549-2.736c-2.434-3.953-1.209-9.124,2.745-11.549
		c88.702-54.7,162.321-66.678,196.919-32.097c53.433,53.433-6.748,197.321-136.998,327.571
		C248.956,445.149,143.115,503.501,74.02,503.501"/>
	<g>
		<path style="fill:#F0C419;" d="M429.529,503.501c-69.095,0.008-174.928-58.343-273.039-156.454
			C26.24,216.797-33.941,72.909,19.492,19.476c53.433-53.424,197.321,6.757,327.562,137.006
			c12.414,12.414,50.31,51.074,62.12,64.579c3.047,3.483,2.694,8.788-0.797,11.843c-3.492,3.047-8.788,2.694-11.843-0.797
			c-11.549-13.211-49.043-51.452-61.348-63.757C215.706,48.87,76.567-13.863,31.36,31.353
			c-45.215,45.215,17.526,184.345,136.998,303.826c119.489,119.481,258.619,182.213,303.834,136.998
			c28.017-28.017,15.234-94.829-33.364-174.365c-2.409-3.953-1.167-9.124,2.787-11.541c3.97-2.409,9.124-1.167,11.541,2.787
			c53.651,87.804,65.2,160.692,30.905,194.988C470.875,497.231,452.166,503.501,429.529,503.501"/>
		<path style="fill:#F0C419;" d="M402.857,234.976h-50.361c-4.633,0-8.393-3.76-8.393-8.393s3.76-8.393,8.393-8.393h41.967v-41.967
			c0-4.633,3.76-8.393,8.393-8.393s8.393,3.76,8.393,8.393v50.361C411.25,231.216,407.49,234.976,402.857,234.976"/>
	</g>
	<path style="fill:#E64C3C;" d="M67.119,335.697c-4.633,0-8.393-3.76-8.393-8.393v-41.967H16.758c-4.633,0-8.393-3.76-8.393-8.393
		c0-4.633,3.76-8.393,8.393-8.393h50.361c4.633,0,8.393,3.76,8.393,8.393v50.361C75.512,331.937,71.752,335.697,67.119,335.697"/>
</g>
<g>
</g>
<g>
</g>
<g>
</g>
<g>
</g>
<g>
</g>
<g>
</g>
<g>
</g>
<g>
</g>
<g>
</g>
<g>
</g>
<g>
</g>
<g>
</g>
<g>
</g>
<g>
</g>
<g>
</g>
</svg>
