<svg height="512" viewBox="0 0 64 64" width="512" xmlns="http://www.w3.org/2000/svg"><g id="segment"><path d="m61 38v1a1 1 0 0 1 -1 1h-2v-3h2a1 1 0 0 1 1 1z" fill="#ffdaaa"/><path d="m61 25v4a5.985 5.985 0 0 1 -3 5.19v-.19l-8-2-4 2v1h-1a2.006 2.006 0 0 1 -2-2v-2a6 6 0 0 1 6-6z" fill="#ffde55"/><path d="m53 9 6 12h-12z" fill="#ff3051"/><g fill="#ffdaaa"><path d="m59 52-2 9h-10l-2-9 4-3v-3.81a5.961 5.961 0 0 0 6 0v3.81z"/><path d="m58 34v6a5.985 5.985 0 0 1 -3 5.19 5.961 5.961 0 0 1 -6 0 5.985 5.985 0 0 1 -3-5.19v-6l4-2z"/><path d="m46 37v3h-2a1 1 0 0 1 -1-1v-1a1 1 0 0 1 1-1z"/><path d="m41 14v1a1 1 0 0 1 -1 1h-2v-3h2a1 1 0 0 1 1 1z"/></g><path d="m41 9v1l-3 3v-3l-8-2-4 2v3l-3-3v-1a6 6 0 0 1 6-6h6a6 6 0 0 1 6 6z" fill="#c0ab91"/><path d="m39 28-2 9h-10l-2-9 4-3v-3.81a5.961 5.961 0 0 0 6 0v3.81z" fill="#ffdaaa"/><path d="m39 28-2 9h-2l2-9-4-3v-3.08a5.79 5.79 0 0 0 2-.73v3.81z" fill="#ffc477"/><path d="m59 52-2 9h-2l2-9-4-3v-3.08a5.79 5.79 0 0 0 2-.73v3.81z" fill="#ffc477"/><path d="m26 43h12v12h-12z" fill="#57a4ff"/><path d="m38 10v6a5.985 5.985 0 0 1 -3 5.19 5.961 5.961 0 0 1 -6 0 5.985 5.985 0 0 1 -3-5.19v-6l4-2z" fill="#ffdaaa"/><path d="m38 10v6a5.985 5.985 0 0 1 -3 5.19 5.857 5.857 0 0 1 -3 .81 6.531 6.531 0 0 1 -1-.08 5.79 5.79 0 0 0 2-.73 5.985 5.985 0 0 0 3-5.19v-6l-6.67-1.67.67-.33z" fill="#ffc477"/><path d="m58 34v6a5.985 5.985 0 0 1 -3 5.19 5.857 5.857 0 0 1 -3 .81 6.531 6.531 0 0 1 -1-.08 5.79 5.79 0 0 0 2-.73 5.985 5.985 0 0 0 3-5.19v-6l-6.67-1.67.67-.33z" fill="#ffc477"/><path d="m26 13v3h-2a1 1 0 0 1 -1-1v-1a1 1 0 0 1 1-1z" fill="#ffdaaa"/><path d="m21 38v1a1 1 0 0 1 -1 1h-2v-3h2a1 1 0 0 1 1 1z" fill="#c0ab91"/><path d="m21 31v1.34a4 4 0 0 1 -1.17 2.83l-1.83 1.83v-3l-8-2-4 2v3l-1.83-1.83a4 4 0 0 1 -1.17-2.83v-1.34a4 4 0 0 1 4-4h10a4 4 0 0 1 4 4z" fill="#787680"/><path d="m61 25v4a5.985 5.985 0 0 1 -3 5.19v-.19l-1.26-.32a5.973 5.973 0 0 0 2.26-4.68v-4z" fill="#ffcd00"/><path d="m41 9v1l-3 3v-2l1-1v-1a6 6 0 0 0 -6-6h2a6 6 0 0 1 6 6z" fill="#b39a7c"/><path d="m21 31v1.34a4 4 0 0 1 -1.17 2.83l-1.83 1.83v-2.01a4.021 4.021 0 0 0 1-2.65v-1.34a4 4 0 0 0 -4-4h2a4 4 0 0 1 4 4z" fill="#57565c"/><path d="m19 52-2 9h-10l-2-9 4-3v-3.81a5.961 5.961 0 0 0 6 0v3.81z" fill="#b39a7c"/><path d="m18 34v6a5.985 5.985 0 0 1 -3 5.19 5.961 5.961 0 0 1 -6 0 5.985 5.985 0 0 1 -3-5.19v-6l4-2z" fill="#b39a7c"/><circle cx="11" cy="15" fill="#ffde55" r="6"/><path d="m59 21h-12l1-2h8l-4-8 1-2z" fill="#cd2a00"/><path d="m38 43v12h-12v-2h9v-10z" fill="#2488ff"/><path d="m17 15a6 6 0 0 1 -10.67 3.76 5.764 5.764 0 0 0 1.67.24 6 6 0 0 0 6-6 5.9 5.9 0 0 0 -1.33-3.76 6 6 0 0 1 4.33 5.76z" fill="#ffcd00"/><path d="m6 37v3h-2a1 1 0 0 1 -1-1v-1a1 1 0 0 1 1-1z" fill="#c0ab91"/><path d="m18 34v6a5.985 5.985 0 0 1 -3 5.19 5.857 5.857 0 0 1 -3 .81 6.531 6.531 0 0 1 -1-.08 5.79 5.79 0 0 0 2-.73 5.985 5.985 0 0 0 3-5.19v-6l-6.67-1.67.67-.33z" fill="#a78966"/><path d="m19 52-2 9h-2l2-9-4-3v-3.08a5.79 5.79 0 0 0 2-.73v3.81z" fill="#a78966"/><path d="m42 10v-1a7.008 7.008 0 0 0 -7-7h-6a7.008 7.008 0 0 0 -7 7v1a1.033 1.033 0 0 0 .29.71l1.33 1.33a2 2 0 0 0 -1.62 1.96v1a2.006 2.006 0 0 0 2 2h1.08a7.007 7.007 0 0 0 2.92 4.74v2.76l-3.6 2.7a1.024 1.024 0 0 0 -.38 1.02l2 9a1.015 1.015 0 0 0 .98.78h10a1.015 1.015 0 0 0 .98-.78l2-9a1.024 1.024 0 0 0 -.38-1.02l-3.6-2.7v-2.76a7.007 7.007 0 0 0 2.92-4.74h1.08a2.006 2.006 0 0 0 2-2v-1a2 2 0 0 0 -1.62-1.96l1.33-1.33a1.033 1.033 0 0 0 .29-.71zm-17 5h-1v-1h1zm12.88 13.41-1.68 7.59h-8.4l-1.68-7.59 3.48-2.61a1.014 1.014 0 0 0 .4-.8v-2.29a7.042 7.042 0 0 0 4 0v2.29a1.014 1.014 0 0 0 .4.8zm-.88-12.41a5 5 0 0 1 -10 0v-5.38l3.12-1.56 6.88 1.72zm3-1h-1v-1h1zm0-5.41-1 1v-.59a1 1 0 0 0 -.76-.97l-8-2a.978.978 0 0 0 -.69.08l-4 2a.977.977 0 0 0 -.55.89v.59l-1-1v-.59a5 5 0 0 1 5-5h6a5 5 0 0 1 5 5z"/><path d="m22 32.34v-1.34a5 5 0 0 0 -5-5h-10a5 5 0 0 0 -5 5v1.34a4.994 4.994 0 0 0 1.46 3.54l.16.16a2 2 0 0 0 -1.62 1.96v1a2.006 2.006 0 0 0 2 2h1.08a7.007 7.007 0 0 0 2.92 4.74v2.76l-3.6 2.7a1.024 1.024 0 0 0 -.38 1.02l2 9a1.015 1.015 0 0 0 .98.78h10a1.015 1.015 0 0 0 .98-.78l2-9a1.024 1.024 0 0 0 -.38-1.02l-3.6-2.7v-2.76a7.007 7.007 0 0 0 2.92-4.74h1.08a2.006 2.006 0 0 0 2-2v-1a2 2 0 0 0 -1.62-1.96l.16-.16a4.994 4.994 0 0 0 1.46-3.54zm-17 6.66h-1v-1h1zm12.88 13.41-1.68 7.59h-8.4l-1.68-7.59 3.48-2.61a1.014 1.014 0 0 0 .4-.8v-2.29a7.042 7.042 0 0 0 4 0v2.29a1.014 1.014 0 0 0 .4.8zm-.88-12.41a5 5 0 0 1 -10 0v-5.38l3.12-1.56 6.88 1.72zm3-1h-1v-1h1zm0-6.66a3 3 0 0 1 -.88 2.12l-.12.13v-.59a1 1 0 0 0 -.76-.97l-8-2a.978.978 0 0 0 -.69.08l-4 2a.977.977 0 0 0 -.55.89v.59l-.12-.13a3 3 0 0 1 -.88-2.12v-1.34a3.009 3.009 0 0 1 3-3h10a3.009 3.009 0 0 1 3 3z"/><path d="m38 42h-12a1 1 0 0 0 -1 1v12a1 1 0 0 0 1 1h12a1 1 0 0 0 1-1v-12a1 1 0 0 0 -1-1zm-1 12h-10v-10h10z"/><path d="m47 22h12a1 1 0 0 0 .9-1.447l-6-12a1.042 1.042 0 0 0 -1.79 0l-6 12a1 1 0 0 0 .89 1.447zm6-10.764 4.382 8.764h-8.764z"/><path d="m11 22a7 7 0 1 0 -7-7 7.008 7.008 0 0 0 7 7zm0-12a5 5 0 1 1 -5 5 5.006 5.006 0 0 1 5-5z"/><path d="m29 12h2v2h-2z"/><path d="m33 12h2v2h-2z"/><path d="m9 36h2v2h-2z"/><path d="m13 36h2v2h-2z"/><path d="m62 29v-4a1 1 0 0 0 -1-1h-12a7.008 7.008 0 0 0 -7 7v2a3.009 3.009 0 0 0 3 3h-1a2.006 2.006 0 0 0 -2 2v1a2.006 2.006 0 0 0 2 2h1.08a7.007 7.007 0 0 0 2.92 4.74v2.76l-3.6 2.7a1.024 1.024 0 0 0 -.38 1.02l2 9a1.015 1.015 0 0 0 .98.78h10a1.015 1.015 0 0 0 .98-.78l2-9a1.024 1.024 0 0 0 -.38-1.02l-3.6-2.7v-2.76a7.007 7.007 0 0 0 2.92-4.74h1.08a2.006 2.006 0 0 0 2-2v-1a2.006 2.006 0 0 0 -2-2h-1v-1.28a6.981 6.981 0 0 0 3-5.72zm-17 10h-1v-1h1zm12.88 13.41-1.68 7.59h-8.4l-1.68-7.59 3.48-2.61a1.014 1.014 0 0 0 .4-.8v-2.29a7.042 7.042 0 0 0 4 0v2.29a1.014 1.014 0 0 0 .4.8zm-.88-12.41a5 5 0 0 1 -10 0v-5.38l3.12-1.56 6.88 1.72zm3-2v1h-1v-1zm-1.98-5.03-7.78-1.94a.972.972 0 0 0 -.69.08l-4 2a.977.977 0 0 0 -.55.89 1 1 0 0 1 -1-1v-2a5 5 0 0 1 5-5h11v3a4.992 4.992 0 0 1 -1.98 3.97z"/><path d="m49 36h2v2h-2z"/><path d="m53 36h2v2h-2z"/></g></svg>