<?xml version="1.0" encoding="iso-8859-1"?>
<!-- Generator: Adobe Illustrator 19.0.0, SVG Export Plug-In . SVG Version: 6.00 Build 0)  -->
<svg version="1.1" id="Capa_1" xmlns="http://www.w3.org/2000/svg" xmlns:xlink="http://www.w3.org/1999/xlink" x="0px" y="0px"
	 viewBox="0 0 512 512" style="enable-background:new 0 0 512 512;" xml:space="preserve">
<rect x="55.609" y="7.515" style="fill:#C1B8B7;" width="400.783" height="496.971"/>
<rect x="55.609" y="7.515" style="fill:#8F807D;" width="64.125" height="496.971"/>
<rect x="55.609" y="7.515" style="fill:#82716F;" width="24.047" height="496.971"/>
<g>
	<path style="fill:#B0DB51;" d="M71.64,95.687H23.546c-8.854,0-16.031-7.177-16.031-16.031l0,0c0-8.854,7.177-16.031,16.031-16.031
		H71.64c8.854,0,16.031,7.177,16.031,16.031l0,0C87.671,88.51,80.494,95.687,71.64,95.687z"/>
	<path style="fill:#B0DB51;" d="M71.64,167.828H23.546c-8.854,0-16.031-7.177-16.031-16.031l0,0c0-8.854,7.177-16.031,16.031-16.031
		H71.64c8.854,0,16.031,7.177,16.031,16.031l0,0C87.671,160.651,80.494,167.828,71.64,167.828z"/>
	<path style="fill:#B0DB51;" d="M71.64,416.313H23.546c-8.854,0-16.031,7.177-16.031,16.031l0,0c0,8.854,7.177,16.031,16.031,16.031
		H71.64c8.854,0,16.031-7.177,16.031-16.031l0,0C87.671,423.49,80.494,416.313,71.64,416.313z"/>
	<path style="fill:#B0DB51;" d="M71.64,344.172H23.546c-8.854,0-16.031,7.177-16.031,16.031l0,0c0,8.854,7.177,16.031,16.031,16.031
		H71.64c8.854,0,16.031-7.177,16.031-16.031l0,0C87.671,351.349,80.494,344.172,71.64,344.172z"/>
	<path style="fill:#B0DB51;" d="M488.454,304.094h-32.063v-96.188h32.063c8.854,0,16.031,7.177,16.031,16.031v64.125
		C504.485,296.917,497.308,304.094,488.454,304.094z"/>
</g>
<path style="fill:#FF7883;" d="M488.454,159.812h-32.063V63.624h32.063c8.854,0,16.031,7.177,16.031,16.031v64.125
	C504.485,152.635,497.308,159.812,488.454,159.812z"/>
<rect x="456.391" y="63.624" style="fill:#DB5E6F;" width="16.031" height="96.188"/>
<rect x="456.391" y="207.906" style="fill:#9CC445;" width="16.031" height="96.188"/>
<path style="fill:#FF7883;" d="M488.454,352.188h-32.063v96.188h32.063c8.854,0,16.031-7.177,16.031-16.031v-64.125
	C504.485,359.365,497.308,352.188,488.454,352.188z"/>
<rect x="456.391" y="352.188" style="fill:#DB5E6F;" width="16.031" height="96.188"/>
<path style="fill:#FFC44F;" d="M416.048,318.388l-65.128-13.025l-30.898,30.898c-52.27-22.15-79.902-49.782-104.205-104.205
	l30.898-30.898l-13.025-65.128l-44.859-8.281c-9.814,2.23-19.14,7.152-26.782,14.794c-14.864,14.864-16.929,35.509-13.877,54.913
	c6.904,43.892,28.273,102.608,65.711,140.195l-0.001,0.001c0.09,0.09,0.177,0.183,0.268,0.275c0.091,0.091,0.184,0.177,0.275,0.268
	l0,0c37.585,37.438,96.303,58.807,140.194,65.711c19.404,3.053,40.049,0.988,54.913-13.877c7.642-7.642,12.564-16.968,14.794-26.782
	L416.048,318.388z"/>
<g>
	<polygon style="fill:#FFD791;" points="350.919,305.362 320.022,336.261 424.329,363.246 416.048,318.388 	"/>
	<polygon style="fill:#FFD791;" points="188.832,127.75 215.818,232.056 246.716,201.159 233.69,136.031 	"/>
</g>
<polygon style="fill:#E6E3E2;" points="280.047,103.703 280.047,223.937 328.141,223.937 328.141,256 368.219,223.937 
	424.329,223.937 424.329,103.703 "/>
<path d="M488.454,167.327c12.983,0,23.546-10.563,23.546-23.546V79.656c0-12.983-10.563-23.546-23.546-23.546h-24.548V7.515
	c0-4.15-3.364-7.515-7.515-7.515H55.609c-4.151,0-7.515,3.365-7.515,7.515V56.11H23.546C10.563,56.11,0,66.672,0,79.656
	s10.563,23.546,23.546,23.546h24.548v25.049H23.546C10.563,128.25,0,138.813,0,151.796s10.563,23.546,23.546,23.546h24.548v161.315
	H23.546C10.563,336.658,0,347.22,0,360.204s10.563,23.546,23.546,23.546h24.548v25.049H23.546C10.563,408.798,0,419.361,0,432.344
	s10.563,23.546,23.546,23.546h24.548v48.595c0,4.15,3.364,7.515,7.515,7.515h400.783c4.151,0,7.515-3.365,7.515-7.515V455.89h24.548
	c12.983,0,23.546-10.563,23.546-23.546v-64.125c0-12.983-10.563-23.546-23.546-23.546h-24.548v-33.065h24.548
	c12.983,0,23.546-10.563,23.546-23.546v-64.125c0-12.983-10.563-23.546-23.546-23.546h-24.548v-33.065H488.454z M488.454,71.139
	c4.696,0,8.517,3.82,8.517,8.517v64.125c0,4.696-3.82,8.517-8.517,8.517h-24.548V71.139H488.454z M15.029,79.656
	c0-4.696,3.82-8.517,8.517-8.517H71.64c4.696,0,8.517,3.82,8.517,8.517s-3.82,8.517-8.517,8.517H23.546
	C18.85,88.172,15.029,84.352,15.029,79.656z M15.029,151.796c0-4.696,3.82-8.517,8.517-8.517H71.64c4.696,0,8.517,3.82,8.517,8.517
	s-3.82,8.517-8.517,8.517H23.546C18.85,160.313,15.029,156.493,15.029,151.796z M15.029,360.204c0-4.696,3.82-8.517,8.517-8.517
	H71.64c4.696,0,8.517,3.82,8.517,8.517c0,4.696-3.82,8.517-8.517,8.517H23.546C18.85,368.72,15.029,364.9,15.029,360.204z
	 M15.029,432.344c0-4.696,3.82-8.517,8.517-8.517H71.64c4.696,0,8.517,3.82,8.517,8.517c0,4.696-3.82,8.517-8.517,8.517H23.546
	C18.85,440.861,15.029,437.041,15.029,432.344z M448.877,496.971H127.249V116.227c0-4.15-3.364-7.515-7.515-7.515
	c-4.151,0-7.515,3.365-7.515,7.515v380.744H63.123v-41.08h8.517c12.983,0,23.546-10.563,23.546-23.546s-10.563-23.546-23.546-23.546
	h-8.517V383.75h8.517c12.983,0,23.546-10.563,23.546-23.546s-10.563-23.546-23.546-23.546h-8.517V175.342h8.517
	c12.983,0,23.546-10.563,23.546-23.546S84.623,128.25,71.64,128.25h-8.517v-25.049h8.517c12.983,0,23.546-10.563,23.546-23.546
	S84.623,56.11,71.64,56.11h-8.517v-41.08h49.096v65.127c0,4.15,3.364,7.515,7.515,7.515c4.151,0,7.515-3.365,7.515-7.515V15.029
	h321.628V496.971z M488.454,359.703c4.696,0,8.517,3.82,8.517,8.517v64.125c0,4.696-3.82,8.517-8.517,8.517h-24.548v-81.159H488.454
	z M488.454,215.421c4.696,0,8.517,3.82,8.517,8.517v64.125c0,4.696-3.82,8.517-8.517,8.517h-24.548v-81.159H488.454z"/>
<path d="M431.803,363.933c0.064-0.678,0.039-1.381-0.085-2.051l-8.282-44.859c-0.558-3.023-2.902-5.402-5.916-6.005l-65.127-13.025
	c-2.462-0.491-5.01,0.279-6.787,2.055l-27.285,27.284c-46.025-20.396-71.246-45.661-93.506-93.648l27.214-27.214
	c1.775-1.776,2.547-4.323,2.055-6.787l-13.025-65.127c-0.603-3.015-2.982-5.358-6.005-5.917l-44.859-8.281
	c-0.987-0.182-2.05-0.16-3.029,0.062c-11.532,2.62-22.055,8.432-30.429,16.808c-14.497,14.496-20.025,35.727-15.987,61.395
	c6.886,43.774,28.316,104.679,67.862,144.385l0.512,0.509c39.649,39.493,100.553,60.923,144.331,67.81
	c5.455,0.858,10.706,1.285,15.738,1.285c18.645,0,34.241-5.855,45.655-17.271c8.376-8.375,14.189-18.898,16.809-30.431
	C431.729,364.592,431.773,364.258,431.803,363.933z M414.798,353.019l-80.167-20.741l18.758-18.758l56.192,11.238l0.667,3.614
	L414.798,353.019z M238.558,198.689l-18.759,18.758l-20.74-80.168l28.259,5.217L238.558,198.689z M355.79,396.482
	c-41.448-6.521-98.957-26.656-136.064-63.616l-0.518-0.519c-36.958-37.103-57.092-94.611-63.611-136.059
	c-3.307-21.022,0.651-37.317,11.767-48.432c4.634-4.634,10.136-8.223,16.164-10.609l25.015,96.69
	c0.004,0.016,0.011,0.03,0.015,0.045c0.028,0.106,0.071,0.21,0.104,0.316c0.075,0.241,0.155,0.481,0.254,0.711
	c0.015,0.036,0.023,0.074,0.039,0.11c24.988,55.957,54.295,85.245,108.134,108.059c0.35,0.148,0.713,0.263,1.079,0.364
	l96.662,25.008c-2.386,6.028-5.975,11.531-10.61,16.165C393.105,395.831,376.807,399.788,355.79,396.482z"/>
<path d="M424.329,96.188H280.047c-4.151,0-7.515,3.365-7.515,7.515v120.235c0,4.15,3.364,7.515,7.515,7.515h40.579V256
	c0,6.158,7.371,9.737,12.21,5.867l38.019-30.415h53.473c4.151,0,7.515-3.365,7.515-7.515V103.703
	C431.843,99.552,428.48,96.188,424.329,96.188z M416.814,216.423h-48.595c-1.706,0-3.362,0.581-4.695,1.647l-27.868,22.296v-16.428
	c0-4.15-3.364-7.515-7.515-7.515h-40.579V111.217h129.252V216.423z"/>
<path d="M320.125,151.296h64.125c4.151,0,7.515-3.365,7.515-7.515s-3.364-7.515-7.515-7.515h-64.125
	c-4.151,0-7.515,3.365-7.515,7.515S315.974,151.296,320.125,151.296z"/>
<path d="M320.125,191.374h32.063c4.151,0,7.515-3.365,7.515-7.515s-3.364-7.515-7.515-7.515h-32.063
	c-4.151,0-7.515,3.365-7.515,7.515S315.974,191.374,320.125,191.374z"/>
<path d="M384.25,176.344h-8.016c-4.151,0-7.515,3.365-7.515,7.515s3.364,7.515,7.515,7.515h8.016c4.151,0,7.515-3.365,7.515-7.515
	S388.402,176.344,384.25,176.344z"/>
<g>
</g>
<g>
</g>
<g>
</g>
<g>
</g>
<g>
</g>
<g>
</g>
<g>
</g>
<g>
</g>
<g>
</g>
<g>
</g>
<g>
</g>
<g>
</g>
<g>
</g>
<g>
</g>
<g>
</g>
</svg>
