<svg id="Capa_1" enable-background="new 0 0 511.965 511.965" height="512" viewBox="0 0 511.965 511.965" width="512" xmlns="http://www.w3.org/2000/svg"><g><g><g><g><g><path d="m66.089 500.654h379.787v-276.543l-189.893-147.284-189.894 147.284" fill="#faf7f5"/></g></g><path d="m155.475 81.345 82.816-63.973c10.415-8.078 24.968-8.078 35.383 0l217.11 168.394c12.613 9.783 14.917 27.951 5.146 40.58-9.772 12.629-27.917 14.937-40.53 5.153l-199.417-154.672-199.418 154.672c-5.264 4.083-11.491 6.06-17.671 6.06-8.628 0-17.165-3.854-22.858-11.212-9.771-12.629-7.467-30.797 5.146-40.58l63.029-48.782" fill="#ff7d97"/><path d="m424.691 134.504v-92.169h-61.276v44.641z" fill="#ff9eb1"/></g><g><path d="m138.94 368.388-20 42.607h274.085l-20-42.607z" fill="#66e0f7"/><path d="m138.94 210.644h234.085v157.745h-234.085z" fill="#ccf5fc"/><path d="m393.025 410.995h-274.085v20.596c0 10.617 8.607 19.223 19.223 19.223h235.638c10.617 0 19.223-8.607 19.223-19.223v-20.596z" fill="#99ebfa"/></g></g><g><path d="m496.913 177.865-62.222-48.26v-87.27c0-5.523-4.478-10-10-10h-61.277c-5.522 0-10 4.477-10 10v24.23l-73.611-57.094c-14.025-10.877-33.615-10.878-47.625-.012l-82.816 63.973c-4.371 3.376-5.177 9.657-1.801 14.027 3.377 4.371 9.655 5.176 14.027 1.801l82.832-63.985c6.809-5.279 16.318-5.279 23.125 0 0 0 89.736 69.601 89.74 69.604l127.37 98.79c8.241 6.392 9.751 18.306 3.366 26.558-3.092 3.996-7.552 6.546-12.558 7.182-4.992.632-9.948-.718-13.935-3.811l-199.417-154.673c-3.607-2.798-8.65-2.798-12.258 0l-199.417 154.672c-3.341 2.591-7.331 3.961-11.541 3.961h-.001c-5.896 0-11.346-2.673-14.95-7.332-6.385-8.252-4.875-20.167 3.357-26.552l63.029-48.782c4.368-3.38 5.168-9.661 1.788-14.029s-9.664-5.168-14.028-1.788l-63.038 48.789c-16.944 13.144-20.052 37.637-6.927 54.602 7.421 9.591 18.635 15.092 30.767 15.093h.003c6.055 0 11.887-1.37 17.194-4.007v257.103c0 5.523 4.478 10 10 10h379.787c5.522 0 10-4.477 10-10v-257.106c5.321 2.642 11.158 4.015 17.136 4.015 1.648 0 3.309-.104 4.97-.315 10.311-1.309 19.493-6.559 25.858-14.784 13.125-16.964 10.018-41.457-6.927-54.6zm-123.499-125.53h41.277v61.757l-20.386-15.811-20.892-16.204v-29.742zm-297.325 438.32v-261.644l179.894-139.529 179.894 139.529v261.643h-359.788z"/><path d="m110.462 113.104c1.627 3.906 5.642 6.421 9.87 6.15 4.126-.265 7.725-3.129 8.93-7.077 1.221-3.999-.265-8.508-3.659-10.967-3.28-2.375-7.736-2.542-11.183-.422-4.125 2.537-5.786 7.856-3.958 12.316z"/><path d="m402.013 406.607-18.988-40.449v-155.514c0-5.523-4.478-10-10-10h-234.085c-5.522 0-10 4.477-10 10v155.514l-18.988 40.449c-.519 1.061-1.012 4.375-1.012 4.388v20.596c0 16.114 13.109 29.223 29.224 29.223h235.639c16.114 0 29.224-13.109 29.224-29.223v-20.596c-.001-.014-.495-3.327-1.014-4.388zm-256.721-28.219h221.381l10.611 22.606h-242.603zm3.648-157.744h214.086v137.745h-214.086zm234.086 210.947c0 5.085-4.138 9.223-9.224 9.223h-235.639c-5.086 0-9.224-4.138-9.224-9.223v-10.596h254.086v10.596z"/><path d="m255.983 234.896c-27.89 0-54.084 10.834-73.757 30.506-3.905 3.905-3.905 10.237 0 14.143 3.906 3.905 10.236 3.905 14.143 0 15.895-15.896 37.066-24.649 59.614-24.649s43.72 8.753 59.614 24.649c1.953 1.953 4.512 2.929 7.071 2.929s5.118-.976 7.071-2.929c3.905-3.905 3.905-10.237 0-14.143-19.672-19.672-45.867-30.506-73.756-30.506z"/><path d="m210.908 294.085c-3.905 3.905-3.905 10.237 0 14.143 3.906 3.904 10.236 3.904 14.143 0 17.055-17.057 44.809-17.057 61.863 0 1.953 1.952 4.512 2.929 7.071 2.929s5.118-.977 7.071-2.929c3.905-3.905 3.905-10.237 0-14.143-24.853-24.854-65.294-24.854-90.148 0z"/><path d="m239.591 322.767c-3.905 3.905-3.905 10.237 0 14.143 3.906 3.905 10.236 3.905 14.143 0 1.24-1.24 3.258-1.24 4.498 0 1.953 1.953 4.512 2.929 7.071 2.929s5.118-.976 7.071-2.929c3.905-3.905 3.905-10.237 0-14.143-9.039-9.038-23.744-9.038-32.783 0z"/></g></g></svg>